<svg xmlns="http://www.w3.org/2000/svg" width="50mm" height="50mm" viewBox="0 0 50 50"><defs><marker orient="auto" overflow="visible"><path d="M-5.6-5.657l-5.657 5.657 5.657 5.657 5.657-5.657-5.657-5.657z" fill-rule="evenodd" fill="#fff" stroke="#000" stroke-width="NaN"/></marker><marker orient="auto" overflow="visible"><path d="M10 0l4-4-14 4 14 4-4-4z" fill-rule="evenodd" stroke="#000" stroke-width="NaN"/></marker><marker orient="auto" overflow="visible"><path d="M10 0l4-4-14 4 14 4-4-4z" fill-rule="evenodd" stroke="#000" stroke-width="NaN"/></marker><marker orient="auto" overflow="visible"><path d="M10 0l4-4-14 4 14 4-4-4z" fill-rule="evenodd" stroke="#000" stroke-width="NaN"/></marker><marker orient="auto" overflow="visible"><path d="M10 0l4-4-14 4 14 4-4-4z" fill-rule="evenodd" stroke="#000" stroke-width="NaN"/></marker><marker orient="auto" overflow="visible"><path d="M3.92 0c0 2.208-1.792 4-4 4s-4-1.792-4-4 1.792-4 4-4 4 1.792 4 4z" fill-rule="evenodd" stroke="#000" stroke-width="NaN"/></marker><marker orient="auto" overflow="visible"><path d="M4 0l2-2-7 2 7 2-2-2z" fill-rule="evenodd" stroke="#000" stroke-width="NaN"/></marker></defs><g><ellipse cx="25" cy="25" rx="23.086" ry="23.086" stroke="#fff" stroke-width="3.828" fill="none"/><path style="paint-order:normal" d="M24.832 30.87v12.695" stroke="#fff" stroke-width="12.665" stroke-linecap="round" stroke-linejoin="round" fill="none"/><ellipse style="paint-order:normal" cx="24.832" cy="15.769" rx="6.332" ry="6.281" fill="#fff"/></g></svg>