<?xml version="1.0" encoding="UTF-8" standalone="no"?>
<svg
   xmlns:dc="http://purl.org/dc/elements/1.1/"
   xmlns:cc="http://creativecommons.org/ns#"
   xmlns:rdf="http://www.w3.org/1999/02/22-rdf-syntax-ns#"
   xmlns:svg="http://www.w3.org/2000/svg"
   xmlns="http://www.w3.org/2000/svg"
   xmlns:sodipodi="http://sodipodi.sourceforge.net/DTD/sodipodi-0.dtd"
   xmlns:inkscape="http://www.inkscape.org/namespaces/inkscape"
   width="99.228"
   height="99.228"
   viewBox="0,0,99.22776,99.22776"
   version="1.1"
   id="svg18"
   sodipodi:docname="logo.svg"
   inkscape:version="1.0.1 (3bc2e813f5, 2020-09-07)">
  <metadata
     id="metadata24">
    <rdf:RDF>
      <cc:Work
         rdf:about="">
        <dc:format>image/svg+xml</dc:format>
        <dc:type
           rdf:resource="http://purl.org/dc/dcmitype/StillImage" />
      </cc:Work>
    </rdf:RDF>
  </metadata>
  <defs
     id="defs22" />
  <sodipodi:namedview
     pagecolor="#ffffff"
     bordercolor="#666666"
     borderopacity="1"
     objecttolerance="10"
     gridtolerance="10"
     guidetolerance="10"
     inkscape:pageopacity="0"
     inkscape:pageshadow="2"
     inkscape:window-width="1574"
     inkscape:window-height="805"
     id="namedview20"
     showgrid="false"
     inkscape:zoom="3.6380861"
     inkscape:cx="-2.7177903"
     inkscape:cy="36.430927"
     inkscape:window-x="0"
     inkscape:window-y="0"
     inkscape:window-maximized="0"
     inkscape:current-layer="svg18" />
  <path
     d="M 0.6,49.614 C 0.6,22.544 22.544,0.6 49.614,0.6 c 27.07,0 49.014,21.944 49.014,49.014 0,27.07 -21.944,49.014 -49.014,49.014 C 22.544,98.628 0.6,76.684 0.6,49.614 Z"
     fill="#ffffff"
     stroke="#ffffff"
     stroke-width="1.2"
     id="path2"
     style="mix-blend-mode:normal" />
  <path
     d="m 84.267,64.167 c -5.645,0.448 -9.14,-1.255 -9.14,-1.255 m 10.305,-8.781 c -4.212,3.405 -10.664,3.495 -10.664,3.495"
     fill="#ffffff"
     fill-rule="evenodd"
     stroke="#ff9126"
     stroke-width="1.2"
     stroke-linecap="round"
     stroke-linejoin="round"
     id="path4"
     style="mix-blend-mode:normal" />
  <path
     d="m 55.681,26.8 c 0.269,-0.179 0.717,-0.09 0.806,0.269 l 2.33,9.588 c 0,0 5.735,4.212 7.438,7.169 2.868,4.929 2.957,8.961 2.957,8.961 0,0 6.362,1.882 7.438,6.99 1.075,5.108 -2.868,14.786 -19.714,18.101 C 40.089,81.194 26.558,76.623 20.196,66.408 13.834,56.192 23.87,44.005 23.332,44.722 L 21.45,28.682 c -0.09,-0.358 0.358,-0.627 0.717,-0.448 l 10.843,7.079 c 0,0 4.032,-1.523 8.244,-1.703 2.509,-0.179 4.66,0 6.721,0.358 z"
     fill="#ffcd3d"
     fill-rule="evenodd"
     id="path6"
     style="mix-blend-mode:normal" />
  <path
     d="m 40.716,62.733 c 0,-0.358 0.358,-0.627 0.717,-0.538 1.703,0.627 6.542,2.061 11.918,2.419 4.839,0.269 7.707,0 9.051,-0.269 0.448,-0.09 0.806,0.358 0.627,0.806 -0.806,2.419 -4.212,9.14 -13.621,8.603 -8.155,-0.896 -8.961,-6.631 -8.692,-11.022 z"
     fill="#ffffff"
     fill-rule="evenodd"
     id="path8"
     style="mix-blend-mode:normal" />
  <path
     d="m 13.475,53.862 c 0,0 7.707,2.509 10.843,5.287 m 0.268,3.136 c -3.853,1.523 -10.484,0.538 -10.484,0.538"
     fill="#ffffff"
     fill-rule="evenodd"
     stroke="#ff9126"
     stroke-width="1.2"
     stroke-linecap="round"
     stroke-linejoin="round"
     id="path10"
     style="mix-blend-mode:normal" />
  <path
     d="m 76.396,43.276 9.358,9.358"
     stroke="#4cdaf4"
     stroke-width="5.5"
     stroke-linecap="round"
     fill="none"
     id="path12"
     style="mix-blend-mode:normal" />
  <path
     d="m 80.619,33.651 c 0,7.383 -6.212,13.368 -13.876,13.368 -7.663,0 -13.876,-5.985 -13.876,-13.368 0,-7.383 6.212,-13.368 13.876,-13.368 7.663,0 13.876,5.985 13.876,13.368 z"
     stroke="#75e4ff"
     stroke-width="5.5"
     fill="none"
     id="path14"
     style="mix-blend-mode:normal" />
</svg>
